# xmcd CD database file
#
# Track frame offsets:
#	150
#	19372
#	36667
#	55895
#
# Disc length: 999 seconds
#
# Revision: 5
# Processed by: cddbd v1.5.2PL0 Copyright (c) Steve Scherf et al.
# Submitted via: CDex 1.60beta1-cs1
#
DISCID=3503e504
DTITLE=カールスモーキー石井＆松任谷由実 - 愛のWAVE
DYEAR=1992
DGENRE=Jazz
TTITLE0=愛のWAVE
TTITLE1=浪漫の伝言
TTITLE2=愛のWAVE（カラオケ with カールスモーキー石井）
TTITLE3=愛のWAVE（カラオケ for DUET）
EXTD=YEAR: 1992
EXTT0=
EXTT1=
EXTT2=
EXTT3=
PLAYORDER=
